<!DOCTYPE svg PUBLIC "-//W3C//DTD SVG 1.1//EN" "http://www.w3.org/Graphics/SVG/1.1/DTD/svg11.dtd">
<!-- Uploaded to: SVG Repo, www.svgrepo.com, Transformed by: SVG Repo Mixer Tools -->
<svg fill="#ffffff" width="800px" height="800px" viewBox="0 0 32.00 32.00" xmlns="http://www.w3.org/2000/svg" stroke="#ffffff" transform="matrix(1, 0, 0, 1, 0, 0)">
<g id="SVGRepo_bgCarrier" stroke-width="0"/>
<g id="SVGRepo_tracerCarrier" stroke-linecap="round" stroke-linejoin="round" stroke="#CCCCCC" stroke-width="0.064"/>
<g id="SVGRepo_iconCarrier">
<path d="M16 0c8.837 0 16 7.163 16 16s-7.163 16-16 16S0 24.837 0 16 7.163 0 16 0zm8.706 19.517H10.34a.59.59 0 00-.415.17l-2.838 2.815a.291.291 0 00.207.498H21.66a.59.59 0 00.415-.17l2.838-2.816a.291.291 0 00-.207-.497zm-3.046-5.292H7.294l-.068.007a.291.291 0 00-.14.49l2.84 2.816.07.06c.1.07.22.11.344.11h14.366l.068-.007a.291.291 0 00.14-.49l-2.84-2.816-.07-.06a.59.59 0 00-.344-.11zM24.706 9H10.34a.59.59 0 00-.415.17l-2.838 2.816a.291.291 0 00.207.497H21.66a.59.59 0 00.415-.17l2.838-2.815A.291.291 0 0024.706 9z"/>
</g>
</svg>